<?xml version="1.0" encoding="UTF-8"?>
<svg width="253.29mm" height="190.5mm" baseProfile="tiny" version="1.2" viewBox="0 0 718 540" xmlns="http://www.w3.org/2000/svg">
<title>Qt SVG Document</title>
<desc>Generated with Qt</desc>
<g fill="none" fill-rule="evenodd" font-weight="400">
<g transform="scale(1.0056)" font-family="Noto Sans" font-size="10" stroke="#a0a0a4" stroke-dasharray="0.5,1" stroke-linecap="round" stroke-linejoin="round" stroke-width=".5">
<polyline points="53.5 491.5 695.5 491.5" fill="none"/>
</g>
<g transform="scale(1.0056)" font-family="Noto Sans" font-size="10" stroke="#000" stroke-linecap="round" stroke-linejoin="round">
<polyline points="53.5 491.5 58.5 491.5"/>
<polyline points="695.5 491.5 690.5 491.5"/>
</g>
<g transform="matrix(1.0056 0 0 1.0056 37.207 497.77)" font-family="Sans" font-size="9" stroke="#000" stroke-linecap="square" stroke-linejoin="bevel">
<text fill="#000000" font-family="Sans" font-size="9" font-weight="400" stroke="none" xml:space="preserve"> 0</text>
</g>
<g transform="scale(1.0056)" font-family="Noto Sans" font-size="10" stroke="#a0a0a4" stroke-dasharray="0.5,1" stroke-linecap="round" stroke-linejoin="round" stroke-width=".5">
<polyline points="53.5 395.5 695.5 395.5" fill="none"/>
</g>
<g transform="scale(1.0056)" font-family="Noto Sans" font-size="10" stroke="#000" stroke-linecap="round" stroke-linejoin="round">
<polyline points="53.5 395.5 58.5 395.5"/>
<polyline points="695.5 395.5 690.5 395.5"/>
</g>
<g transform="matrix(1.0056 0 0 1.0056 27.151 402.24)" font-family="Sans" font-size="9" stroke="#000" stroke-linecap="square" stroke-linejoin="bevel">
<text fill="#000000" font-family="Sans" font-size="9" font-weight="400" stroke="none" xml:space="preserve"> 0.5</text>
</g>
<g transform="scale(1.0056)" font-family="Noto Sans" font-size="10" stroke="#a0a0a4" stroke-dasharray="0.5,1" stroke-linecap="round" stroke-linejoin="round" stroke-width=".5">
<polyline points="53.5 300.5 695.5 300.5" fill="none"/>
</g>
<g transform="scale(1.0056)" font-family="Noto Sans" font-size="10" stroke="#000" stroke-linecap="round" stroke-linejoin="round">
<polyline points="53.5 300.5 58.5 300.5"/>
<polyline points="695.5 300.5 690.5 300.5"/>
</g>
<g transform="matrix(1.0056 0 0 1.0056 39.218 305.7)" font-family="Sans" font-size="9" stroke="#000" stroke-linecap="square" stroke-linejoin="bevel">
<text fill="#000000" font-family="Sans" font-size="9" font-weight="400" stroke="none" xml:space="preserve"> 1</text>
</g>
<g transform="scale(1.0056)" font-family="Noto Sans" font-size="10" stroke="#a0a0a4" stroke-dasharray="0.5,1" stroke-linecap="round" stroke-linejoin="round" stroke-width=".5">
<polyline points="53.5 204.5 695.5 204.5" fill="none"/>
</g>
<g transform="scale(1.0056)" font-family="Noto Sans" font-size="10" stroke="#000" stroke-linecap="round" stroke-linejoin="round">
<polyline points="53.5 204.5 58.5 204.5"/>
<polyline points="695.5 204.5 690.5 204.5"/>
</g>
<g transform="matrix(1.0056 0 0 1.0056 27.151 210.17)" font-family="Sans" font-size="9" stroke="#000" stroke-linecap="square" stroke-linejoin="bevel">
<text fill="#000000" font-family="Sans" font-size="9" font-weight="400" stroke="none" xml:space="preserve"> 1.5</text>
</g>
<g transform="scale(1.0056)" font-family="Noto Sans" font-size="10" stroke="#a0a0a4" stroke-dasharray="0.5,1" stroke-linecap="round" stroke-linejoin="round" stroke-width=".5">
<polyline points="53.5 109.5 695.5 109.5" fill="none"/>
</g>
<g transform="scale(1.0056)" font-family="Noto Sans" font-size="10" stroke="#000" stroke-linecap="round" stroke-linejoin="round">
<polyline points="53.5 109.5 58.5 109.5"/>
<polyline points="695.5 109.5 690.5 109.5"/>
</g>
<g transform="matrix(1.0056 0 0 1.0056 37.207 113.63)" font-family="Sans" font-size="9" stroke="#000" stroke-linecap="square" stroke-linejoin="bevel">
<text fill="#000000" font-family="Sans" font-size="9" font-weight="400" stroke="none" xml:space="preserve"> 2</text>
</g>
<g transform="scale(1.0056)" font-family="Noto Sans" font-size="10" stroke="#a0a0a4" stroke-dasharray="0.5,1" stroke-linecap="round" stroke-linejoin="round" stroke-width=".5">
<polyline points="53.5 14.5 695.5 14.5" fill="none"/>
</g>
<g transform="scale(1.0056)" font-family="Noto Sans" font-size="10" stroke="#000" stroke-linecap="round" stroke-linejoin="round">
<polyline points="53.5 14.5 58.5 14.5"/>
<polyline points="695.5 14.5 690.5 14.5"/>
</g>
<g transform="matrix(1.0056 0 0 1.0056 27.151 18.101)" font-family="Sans" font-size="9" stroke="#000" stroke-linecap="square" stroke-linejoin="bevel">
<text fill="#000000" font-family="Sans" font-size="9" font-weight="400" stroke="none" xml:space="preserve"> 2.5</text>
</g>
<g transform="scale(1.0056)" font-family="Noto Sans" font-size="10" stroke="#a0a0a4" stroke-dasharray="0.5,1" stroke-linecap="round" stroke-linejoin="round" stroke-width=".5">
<polyline points="53.5 491.5 53.5 14.5" fill="none"/>
</g>
<g transform="scale(1.0056)" font-family="Noto Sans" font-size="10" stroke="#000" stroke-linecap="round" stroke-linejoin="round">
<polyline points="53.5 491.5 53.5 485.5"/>
<polyline points="53.5 14.5 53.5 19.5"/>
</g>
<g transform="matrix(1.0056 0 0 1.0056 48.269 511.85)" font-family="Sans" font-size="9" stroke="#000" stroke-linecap="square" stroke-linejoin="bevel">
<text fill="#000000" font-family="Sans" font-size="9" font-weight="400" stroke="none" xml:space="preserve"> 0</text>
</g>
<g transform="scale(1.0056)" font-family="Noto Sans" font-size="10" stroke="#a0a0a4" stroke-dasharray="0.5,1" stroke-linecap="round" stroke-linejoin="round" stroke-width=".5">
<polyline points="160.5 491.5 160.5 14.5" fill="none"/>
</g>
<g transform="scale(1.0056)" font-family="Noto Sans" font-size="10" stroke="#000" stroke-linecap="round" stroke-linejoin="round">
<polyline points="160.5 491.5 160.5 485.5"/>
<polyline points="160.5 14.5 160.5 19.5"/>
</g>
<g transform="matrix(1.0056 0 0 1.0056 150.84 511.85)" font-family="Sans" font-size="9" stroke="#000" stroke-linecap="square" stroke-linejoin="bevel">
<text fill="#000000" font-family="Sans" font-size="9" font-weight="400" stroke="none" xml:space="preserve"> 0.5</text>
</g>
<g transform="scale(1.0056)" font-family="Noto Sans" font-size="10" stroke="#a0a0a4" stroke-dasharray="0.5,1" stroke-linecap="round" stroke-linejoin="round" stroke-width=".5">
<polyline points="267.5 491.5 267.5 14.5" fill="none"/>
</g>
<g transform="scale(1.0056)" font-family="Noto Sans" font-size="10" stroke="#000" stroke-linecap="round" stroke-linejoin="round">
<polyline points="267.5 491.5 267.5 485.5"/>
<polyline points="267.5 14.5 267.5 19.5"/>
</g>
<g transform="matrix(1.0056 0 0 1.0056 264.47 511.85)" font-family="Sans" font-size="9" stroke="#000" stroke-linecap="square" stroke-linejoin="bevel">
<text fill="#000000" font-family="Sans" font-size="9" font-weight="400" stroke="none" xml:space="preserve"> 1</text>
</g>
<g transform="scale(1.0056)" font-family="Noto Sans" font-size="10" stroke="#a0a0a4" stroke-dasharray="0.5,1" stroke-linecap="round" stroke-linejoin="round" stroke-width=".5">
<polyline points="374.5 491.5 374.5 14.5" fill="none"/>
</g>
<g transform="scale(1.0056)" font-family="Noto Sans" font-size="10" stroke="#000" stroke-linecap="round" stroke-linejoin="round">
<polyline points="374.5 491.5 374.5 485.5"/>
<polyline points="374.5 14.5 374.5 19.5"/>
</g>
<g transform="matrix(1.0056 0 0 1.0056 367.04 511.85)" font-family="Sans" font-size="9" stroke="#000" stroke-linecap="square" stroke-linejoin="bevel">
<text fill="#000000" font-family="Sans" font-size="9" font-weight="400" stroke="none" xml:space="preserve"> 1.5</text>
</g>
<g transform="scale(1.0056)" font-family="Noto Sans" font-size="10" stroke="#a0a0a4" stroke-dasharray="0.5,1" stroke-linecap="round" stroke-linejoin="round" stroke-width=".5">
<polyline points="481.5 491.5 481.5 14.5" fill="none"/>
</g>
<g transform="scale(1.0056)" font-family="Noto Sans" font-size="10" stroke="#000" stroke-linecap="round" stroke-linejoin="round">
<polyline points="481.5 491.5 481.5 485.5"/>
<polyline points="481.5 14.5 481.5 19.5"/>
</g>
<g transform="matrix(1.0056 0 0 1.0056 479.67 511.85)" font-family="Sans" font-size="9" stroke="#000" stroke-linecap="square" stroke-linejoin="bevel">
<text fill="#000000" font-family="Sans" font-size="9" font-weight="400" stroke="none" xml:space="preserve"> 2</text>
</g>
<g transform="scale(1.0056)" font-family="Noto Sans" font-size="10" stroke="#a0a0a4" stroke-dasharray="0.5,1" stroke-linecap="round" stroke-linejoin="round" stroke-width=".5">
<polyline points="588.5 491.5 588.5 14.5" fill="none"/>
</g>
<g transform="scale(1.0056)" font-family="Noto Sans" font-size="10" stroke="#000" stroke-linecap="round" stroke-linejoin="round">
<polyline points="588.5 491.5 588.5 485.5"/>
<polyline points="588.5 14.5 588.5 19.5"/>
</g>
<g transform="matrix(1.0056 0 0 1.0056 582.24 511.85)" font-family="Sans" font-size="9" stroke="#000" stroke-linecap="square" stroke-linejoin="bevel">
<text fill="#000000" font-family="Sans" font-size="9" font-weight="400" stroke="none" xml:space="preserve"> 2.5</text>
</g>
<g transform="scale(1.0056)" font-family="Noto Sans" font-size="10" stroke="#a0a0a4" stroke-dasharray="0.5,1" stroke-linecap="round" stroke-linejoin="round" stroke-width=".5">
<polyline points="695.5 491.5 695.5 14.5" fill="none"/>
</g>
<g transform="scale(1.0056)" font-family="Noto Sans" font-size="10" stroke="#000" stroke-linecap="round" stroke-linejoin="round">
<polyline points="695.5 491.5 695.5 485.5"/>
<polyline points="695.5 14.5 695.5 19.5"/>
</g>
<g transform="matrix(1.0056 0 0 1.0056 694.87 511.85)" font-family="Sans" font-size="9" stroke="#000" stroke-linecap="square" stroke-linejoin="bevel">
<text fill="#000000" font-family="Sans" font-size="9" font-weight="400" stroke="none" xml:space="preserve"> 3</text>
</g>
<g transform="scale(1.0056)" font-family="Noto Sans" font-size="10" stroke="#000" stroke-linecap="round" stroke-linejoin="round">
<polyline points="53.5 14.5 53.5 491.5 695.5 491.5 695.5 14.5 53.5 14.5" fill="none"/>
</g>
<g transform="matrix(0 -1.0056 1.0056 0 16.09 278.05)" font-family="Sans" font-size="9" stroke="#000" stroke-linecap="square" stroke-linejoin="bevel">
<text fill="#000000" font-family="Sans" font-size="9" font-weight="400" stroke="none" xml:space="preserve">zugeteilt</text>
</g>
<g transform="matrix(1.0056 0 0 1.0056 355.98 532.97)" font-family="Sans" font-size="9" stroke="#000" stroke-linecap="square" stroke-linejoin="bevel">
<text fill="#000000" font-family="Sans" font-size="9" font-weight="400" stroke="none" xml:space="preserve">bestellt</text>
</g>
<g transform="scale(1.0056)" font-family="Noto Sans" font-size="10" stroke="#9400d3" stroke-linecap="round" stroke-linejoin="round">
<polyline points="53 491.1 53 491.1 54.3 490 55.6 488.8 56.9 487.7 58.2 486.5 59.4 485.4 60.7 484.2 62 483.1 63.3 481.9 64.6 480.8 65.9 479.6 67.2 478.5 68.5 477.3 69.7 476.2 71 475 72.3 473.9 73.6 472.7 74.9 471.6 76.2 470.4 77.5 469.3 78.8 468.2 80.1 467 81.3 465.9 82.6 464.7 83.9 463.6 85.2 462.4 86.5 461.3 87.8 460.1 89.1 459 90.4 457.8 91.7 456.7 92.9 455.5 94.2 454.4 95.5 453.2 96.8 452.1 98.1 450.9 99.4 449.8 100.7 448.6 102 447.5 103.2 446.4 104.5 445.2 105.8 444.1 107.1 442.9 108.4 441.8 109.7 440.6 111 439.5 112.3 438.3 113.6 437.2 114.8 436 116.1 434.9 117.4 433.7 118.7 432.6 120 431.4 121.3 430.3 122.6 429.1 123.9 428 125.1 426.8 126.4 425.7 127.7 424.6 129 423.4 130.3 422.3 131.6 421.1 132.9 420 134.2 418.8 135.5 417.7 136.7 416.5 138 415.4 139.3 414.2 140.6 413.1 141.9 411.9 143.2 410.8 144.5 409.6 145.8 408.5 147.1 407.3 148.3 406.2 149.6 405 150.9 403.9 152.2 402.8 153.5 401.6 154.8 400.5 156.1 399.3 157.4 398.2 158.6 397 159.9 395.9 161.2 395.2 162.5 394.6 163.8 394.1 165.1 393.5 166.4 392.9 167.7 392.3 169 391.8 170.2 391.2 171.5 390.6 172.8 390 174.1 389.5 175.4 388.9 176.7 388.3 178 387.7 179.3 387.2 180.5 386.6 181.8 386 183.1 385.4 184.4 384.9 185.7 384.3 187 383.7 188.3 383.2 189.6 382.6 190.9 382 192.1 381.4 193.4 380.9 194.7 380.3 196 379.7 197.3 379.1 198.6 378.6 199.9 378 201.2 377.4 202.5 376.8 203.7 376.3 205 375.7 206.3 375.1 207.6 374.5 208.9 374 210.2 373.4 211.5 372.8 212.8 372.3 214 371.7 215.3 371.1 216.6 370.5 217.9 370 219.2 369.4 220.5 368.8 221.8 368.2 223.1 367.7 224.4 367.1 225.6 366.5 226.9 365.9 228.2 365.4 229.5 364.8 230.8 364.2 232.1 363.7 233.4 363.1 234.7 362.5 235.9 361.9 237.2 361.4 238.5 360.8 239.8 360.2 241.1 359.6 242.4 359.1 243.7 358.5 245 357.9 246.3 357.3 247.5 356.8 248.8 356.2 250.1 355.6 251.4 355 252.7 354.5 254 353.9 255.3 353.3 256.6 352.8 257.9 352.2 259.1 351.6 260.4 351 261.7 350.5 263 349.9 264.3 349.3 265.6 348.7 266.9 348.2 268.2 347.6 269.4 347 270.7 346.4 272 345.9 273.3 345.3 274.6 344.7 275.9 344.1 277.2 343.6 278.5 343 279.8 342.4 281 341.9 282.3 341.3 283.6 340.7 284.9 340.1 286.2 339.6 287.5 339 288.8 338.4 290.1 337.8 291.3 337.3 292.6 336.7 293.9 336.1 295.2 335.5 296.5 335 297.8 334.4 299.1 333.8 300.4 333.2 301.7 332.7 302.9 332.1 304.2 331.5 305.5 331 306.8 330.4 308.1 329.8 309.4 329.2 310.7 328.7 312 328.1 313.3 327.5 314.5 326.9 315.8 326.4 317.1 325.8 318.4 325.2 319.7 324.6 321 324.1 322.3 323.5 323.6 322.9 324.8 322.3 326.1 321.8 327.4 321.2 328.7 320.6 330 320.1 331.3 319.5 332.6 318.9 333.9 318.3 335.2 317.8 336.4 317.2 337.7 316.6 339 316 340.3 315.5 341.6 314.9 342.9 314.3 344.2 313.7 345.5 313.2 346.7 312.6 348 312 349.3 311.4 350.6 310.9 351.9 310.3 353.2 309.7 354.5 309.2 355.8 308.6 357.1 308 358.3 307.4 359.6 306.9 360.9 306.3 362.2 305.7 363.5 305.1 364.8 304.6 366.1 304 367.4 303.4 368.7 302.8 369.9 302.3 371.2 301.7 372.5 301.1 373.8 300.5 375.1 299.7 376.4 298.5 377.7 297.4 379 296.2 380.2 295.1 381.5 293.9 382.8 292.8 384.1 291.7 385.4 290.5 386.7 289.4 388 288.2 389.3 287.1 390.6 285.9 391.8 284.8 393.1 283.6 394.4 282.5 395.7 281.3 397 280.2 398.3 279 399.6 277.9 400.9 276.7 402.2 275.6 403.4 274.4 404.7 273.3 406 272.2 407.3 271 408.6 269.9 409.9 268.7 411.2 267.6 412.5 266.4 413.7 265.3 415 264.1 416.3 263 417.6 261.8 418.9 260.7 420.2 259.5 421.5 258.4 422.8 257.2 424.1 256.1 425.3 254.9 426.6 253.8 427.9 252.6 429.2 251.5 430.5 250.4 431.8 249.2 433.1 248.1 434.4 246.9 435.6 245.8 436.9 244.6 438.2 243.5 439.5 242.3 440.8 241.2 442.1 240 443.4 238.9 444.7 237.7 446 236.6 447.2 235.4 448.5 234.3 449.8 233.1 451.1 232 452.4 230.8 453.7 229.7 455 228.6 456.3 227.4 457.6 226.3 458.8 225.1 460.1 224 461.4 222.8 462.7 221.7 464 220.5 465.3 219.4 466.6 218.2 467.9 217.1 469.1 215.9 470.4 214.8 471.7 213.6 473 212.5 474.3 211.3 475.6 210.2 476.9 209 478.2 207.9 479.5 206.8 480.7 205.6 482 204.5 483.3 203.3 484.6 202.2 485.9 201 487.2 199.9 488.5 198.7 489.8 197.6 491 196.4 492.3 195.3 493.6 194.1 494.9 193 496.2 191.8 497.5 190.7 498.8 189.5 500.1 188.4 501.4 187.2 502.6 186.1 503.9 185 505.2 183.8 506.5 182.7 507.8 181.5 509.1 180.4 510.4 179.2 511.7 178.1 513 176.9 514.2 175.8 515.5 174.6 516.8 173.5 518.1 172.3 519.4 171.2 520.7 170 522 168.9 523.3 167.7 524.5 166.6 525.8 165.4 527.1 164.3 528.4 163.2 529.7 162 531 160.9 532.3 159.7 533.6 158.6 534.9 157.4 536.1 156.3 537.4 155.1 538.7 154 540 152.8 541.3 151.7 542.6 150.5 543.9 149.4 545.2 148.2 546.4 147.1 547.7 145.9 549 144.8 550.3 143.6 551.6 142.5 552.9 141.4 554.2 140.2 555.5 139.1 556.8 137.9 558 136.8 559.3 135.6 560.6 134.5 561.9 133.3 563.2 132.2 564.5 131 565.8 129.9 567.1 128.7 568.4 127.6 569.6 126.4 570.9 125.3 572.2 124.1 573.5 123 574.8 121.8 576.1 120.7 577.4 119.6 578.7 118.4 579.9 117.3 581.2 116.1 582.5 115 583.8 113.8 585.1 112.7 586.4 111.5 587.7 110.4 589 109.2 590.3 108.1 591.5 106.9 592.8 105.8 594.1 104.6 595.4 103.5 596.7 102.3 598 101.2 599.3 100.1 600.6 98.9 601.8 97.8 603.1 96.6 604.4 95.5 605.7 94.3 607 93.2 608.3 92 609.6 90.9 610.9 89.7 612.2 88.6 613.4 87.4 614.7 86.3 616 85.1 617.3 84 618.6 82.8 619.9 81.7 621.2 80.5 622.5 79.4 623.8 78.3 625 77.1 626.3 76 627.6 74.8 628.9 73.7 630.2 72.5 631.5 71.4 632.8 70.2 634.1 69.1 635.3 67.9 636.6 66.8 637.9 65.6 639.2 64.5 640.5 63.3 641.8 62.2 643.1 61 644.4 59.9 645.7 58.7 646.9 57.6 648.2 56.5 649.5 55.3 650.8 54.2 652.1 53 653.4 51.9 654.7 50.7 656 49.6 657.2 48.4 658.5 47.3 659.8 46.1 661.1 45 662.4 43.8 663.7 42.7 665 41.5 666.3 40.4 667.6 39.2 668.8 38.1 670.1 36.9 671.4 35.8 672.7 34.7 674 33.5 675.3 32.4 676.6 31.2 677.9 30.1 679.2 28.9 680.4 27.8 681.7 26.6 683 25.5 684.3 24.3 685.6 23.2 686.9 22 688.2 20.9 689.5 19.7 690.7 18.6 692 17.4 693.3 16.3 694.6 15.1 695.9 14" fill="none"/>
</g>
<g transform="scale(1.0056)" font-family="Noto Sans" font-size="10" stroke="#000" stroke-linecap="round" stroke-linejoin="round">
<polyline points="53.5 14.5 53.5 491.5 695.5 491.5 695.5 14.5 53.5 14.5" fill="none"/>
</g>
</g>
</svg>
